<svg xmlns="http://www.w3.org/2000/svg" xmlns:xlink="http://www.w3.org/1999/xlink" version="1.1" x="0px" y="0px" viewBox="0 0 100 100" style="enable-background:new 0 0 100 100;" xml:space="preserve"><path d="M89.9,17.9H68.6l-1-7.6c-0.1-2.6-2.4-4.7-5-4.7H37.4c-2.6,0-4.9,2.1-5,4.7l-1,7.6H10.1c-2.1,0-3.7,1.6-3.7,3.7  s1.6,3.7,3.7,3.7h4.7l9.5,64.4c0.1,2.6,2.4,4.6,5,4.6h41.2c2.6,0,4.7-2,5-4.6L85,25.4h4.9c2.1,0,3.7-1.6,3.7-3.7S92,17.9,89.9,17.9z   M39.5,13.2h20.8l0.6,4.7H39L39.5,13.2z M68.4,86.9H31.6l-9.1-61.5h55L68.4,86.9z"/></svg>