<svg xmlns="http://www.w3.org/2000/svg" viewBox="0 0 16 22.5" x="0px" y="0px"><path fill-rule="evenodd" d="M45.5,2069.5 L53,2069.5 C53.8284271,2069.5 54.5,2068.82843 54.5,2068 L54.5,2066.95852 C53.0811433,2066.72048 52,2065.4865 52,2064 C52,2062.34315 53.3431458,2061 55,2061 C56.6568542,2061 58,2062.34315 58,2064 C58,2065.4865 56.9188567,2066.72048 55.5,2066.95852 L55.5,2068 C55.5,2069.38071 54.3807119,2070.5 53,2070.5 L45.5,2070.5 L45.5,2073.04148 C46.9188567,2073.27952 48,2074.5135 48,2076 C48,2077.65685 46.6568542,2079 45,2079 C43.3431458,2079 42,2077.65685 42,2076 C42,2074.5135 43.0811433,2073.27952 44.5,2073.04148 L44.5,2066.95852 C43.0811433,2066.72048 42,2065.4865 42,2064 C42,2062.34315 43.3431458,2061 45,2061 C46.6568542,2061 48,2062.34315 48,2064 C48,2065.4865 46.9188567,2066.72048 45.5,2066.95852 L45.5,2069.5 Z M45,2062 C43.8954305,2062 43,2062.89543 43,2064 C43,2065.10457 43.8954305,2066 45,2066 C46.1045695,2066 47,2065.10457 47,2064 C47,2062.89543 46.1045695,2062 45,2062 Z M55,2062 C53.8954305,2062 53,2062.89543 53,2064 C53,2065.10457 53.8954305,2066 55,2066 C56.1045695,2066 57,2065.10457 57,2064 C57,2062.89543 56.1045695,2062 55,2062 Z M45,2074 C43.8954305,2074 43,2074.89543 43,2076 C43,2077.10457 43.8954305,2078 45,2078 C46.1045695,2078 47,2077.10457 47,2076 C47,2074.89543 46.1045695,2074 45,2074 Z" transform="translate(-42 -2061)"/><text x="0" y="33" fill="#000000" font-size="5px" font-weight="bold" font-family="'Helvetica Neue', Helvetica, Arial-Unicode, Arial, Sans-serif">Created by Andrejs Kirma</text><text x="0" y="38" fill="#000000" font-size="5px" font-weight="bold" font-family="'Helvetica Neue', Helvetica, Arial-Unicode, Arial, Sans-serif">from the Noun Project</text></svg>